M48
;Layer_Color=9474304
;FILE_FORMAT=2:5
INCH,LZ
;TYPE=PLATED
T1F00S00C0.02000
T2F00S00C0.03150
T3F00S00C0.12205
%
T01
X01275Y04275
X0188Y04235
X01955Y0426
X0191776Y0439604
X0192Y0454
X01905Y04585
X02355Y04495
X0242Y04365
X02375Y04315
X02365Y0421
X02665Y04235
X0217403Y0470663
T02
X018Y0406
X019
X02
X021
X022
X023
T03
X01135Y03805
X02635
Y04872
X01135Y0485971
M30
