G04*
G04 #@! TF.GenerationSoftware,Altium Limited,Altium Designer,19.0.12 (326)*
G04*
G04 Layer_Color=8388736*
%FSLAX25Y25*%
%MOIN*%
G70*
G01*
G75*
%ADD19R,0.07493X0.07887*%
G04:AMPARAMS|DCode=20|XSize=106.42mil|YSize=86.74mil|CornerRadius=13.84mil|HoleSize=0mil|Usage=FLASHONLY|Rotation=270.000|XOffset=0mil|YOffset=0mil|HoleType=Round|Shape=RoundedRectangle|*
%AMROUNDEDRECTD20*
21,1,0.10642,0.05906,0,0,270.0*
21,1,0.07874,0.08674,0,0,270.0*
1,1,0.02769,-0.02953,-0.03937*
1,1,0.02769,-0.02953,0.03937*
1,1,0.02769,0.02953,0.03937*
1,1,0.02769,0.02953,-0.03937*
%
%ADD20ROUNDEDRECTD20*%
%ADD21R,0.07400X0.02800*%
%ADD22O,0.07099X0.09461*%
%ADD23R,0.07099X0.09461*%
%ADD24C,0.02800*%
%ADD25C,0.13005*%
D19*
X199122Y452500D02*
D03*
X210146D02*
D03*
X199122Y442000D02*
D03*
X210146D02*
D03*
X198988Y463500D02*
D03*
X210012D02*
D03*
D20*
X231500Y439705D02*
D03*
Y465295D02*
D03*
X130500Y439705D02*
D03*
Y465295D02*
D03*
D21*
X150400Y468763D02*
D03*
Y463763D02*
D03*
Y458763D02*
D03*
Y453763D02*
D03*
Y448763D02*
D03*
Y443763D02*
D03*
Y438763D02*
D03*
Y433763D02*
D03*
Y428763D02*
D03*
X185600D02*
D03*
Y433763D02*
D03*
Y438763D02*
D03*
Y443763D02*
D03*
Y448763D02*
D03*
Y453763D02*
D03*
Y458763D02*
D03*
Y463763D02*
D03*
Y468763D02*
D03*
D22*
X230000Y406000D02*
D03*
X220000D02*
D03*
X210000D02*
D03*
X200000D02*
D03*
X190000D02*
D03*
D23*
X180000D02*
D03*
D24*
X217403Y470663D02*
D03*
X127500Y427500D02*
D03*
X266500Y423500D02*
D03*
X242000Y436500D02*
D03*
X192000Y454000D02*
D03*
X190500Y458500D02*
D03*
X191776Y439604D02*
D03*
X195500Y426000D02*
D03*
X188000Y423500D02*
D03*
X236500Y421000D02*
D03*
X237500Y431500D02*
D03*
X235500Y449500D02*
D03*
D25*
X113500Y485971D02*
D03*
Y380500D02*
D03*
X263500D02*
D03*
Y487200D02*
D03*
M02*
