G04*
G04 #@! TF.GenerationSoftware,Altium Limited,Altium Designer,19.0.12 (326)*
G04*
G04 Layer_Physical_Order=2*
G04 Layer_Color=16711680*
%FSLAX25Y25*%
%MOIN*%
G70*
G01*
G75*
%ADD26C,0.02000*%
%ADD27O,0.06299X0.08661*%
%ADD28R,0.06299X0.08661*%
%ADD29C,0.02000*%
%ADD30C,0.12205*%
%ADD31R,0.41732X0.33858*%
%ADD32R,0.03937X0.08268*%
%ADD33O,0.17717X0.11811*%
%ADD34R,0.21654X0.07874*%
%ADD35R,0.06299X0.10630*%
%ADD36R,0.06299X0.07087*%
%ADD37R,0.10630X0.06299*%
%ADD38R,0.07087X0.06299*%
%ADD39C,0.04000*%
G36*
X276974Y373026D02*
X265051D01*
X264976Y373526D01*
X266231Y373906D01*
X267465Y374566D01*
X268546Y375454D01*
X269434Y376535D01*
X270093Y377769D01*
X270500Y379108D01*
X270587Y380000D01*
X256413D01*
X256500Y379108D01*
X256907Y377769D01*
X257566Y376535D01*
X258454Y375454D01*
X259535Y374566D01*
X260769Y373906D01*
X262024Y373526D01*
X261949Y373026D01*
X115050D01*
X114976Y373526D01*
X116231Y373906D01*
X117465Y374566D01*
X118546Y375454D01*
X119434Y376535D01*
X120094Y377769D01*
X120500Y379108D01*
X120588Y380000D01*
X106412D01*
X106500Y379108D01*
X106906Y377769D01*
X107566Y376535D01*
X108454Y375454D01*
X109535Y374566D01*
X110769Y373906D01*
X112024Y373526D01*
X111950Y373026D01*
X93026D01*
Y496974D01*
X276974D01*
Y373026D01*
D02*
G37*
%LPC*%
G36*
X264000Y494287D02*
Y487700D01*
X270587D01*
X270500Y488592D01*
X270093Y489931D01*
X269434Y491165D01*
X268546Y492246D01*
X267465Y493134D01*
X266231Y493793D01*
X264892Y494200D01*
X264000Y494287D01*
D02*
G37*
G36*
X263000D02*
X262108Y494200D01*
X260769Y493793D01*
X259535Y493134D01*
X258454Y492246D01*
X257566Y491165D01*
X256907Y489931D01*
X256500Y488592D01*
X256413Y487700D01*
X263000D01*
Y494287D01*
D02*
G37*
G36*
X228638Y491043D02*
X224988D01*
Y487000D01*
X228638D01*
Y491043D01*
D02*
G37*
G36*
X196138D02*
X192488D01*
Y487000D01*
X196138D01*
Y491043D01*
D02*
G37*
G36*
X223988D02*
X220339D01*
Y487000D01*
X223988D01*
Y491043D01*
D02*
G37*
G36*
X191488D02*
X187839D01*
Y487000D01*
X191488D01*
Y491043D01*
D02*
G37*
G36*
X114000Y493058D02*
Y486471D01*
X120588D01*
X120500Y487363D01*
X120094Y488702D01*
X119434Y489936D01*
X118546Y491017D01*
X117465Y491905D01*
X116231Y492564D01*
X114892Y492971D01*
X114000Y493058D01*
D02*
G37*
G36*
X113000D02*
X112108Y492971D01*
X110769Y492564D01*
X109535Y491905D01*
X108454Y491017D01*
X107566Y489936D01*
X106906Y488702D01*
X106500Y487363D01*
X106412Y486471D01*
X113000D01*
Y493058D01*
D02*
G37*
G36*
X228638Y486000D02*
X224988D01*
Y481957D01*
X228638D01*
Y486000D01*
D02*
G37*
G36*
X223988D02*
X220339D01*
Y481957D01*
X223988D01*
Y486000D01*
D02*
G37*
G36*
X196138D02*
X192488D01*
Y481957D01*
X196138D01*
Y486000D01*
D02*
G37*
G36*
X191488D02*
X187839D01*
Y481957D01*
X191488D01*
Y486000D01*
D02*
G37*
G36*
X270587Y486700D02*
X264000D01*
Y480113D01*
X264892Y480200D01*
X266231Y480607D01*
X267465Y481266D01*
X268546Y482154D01*
X269434Y483235D01*
X270093Y484469D01*
X270500Y485808D01*
X270587Y486700D01*
D02*
G37*
G36*
X263000D02*
X256413D01*
X256500Y485808D01*
X256907Y484469D01*
X257566Y483235D01*
X258454Y482154D01*
X259535Y481266D01*
X260769Y480607D01*
X262108Y480200D01*
X263000Y480113D01*
Y486700D01*
D02*
G37*
G36*
X120588Y485471D02*
X114000D01*
Y478884D01*
X114892Y478971D01*
X116231Y479378D01*
X117465Y480037D01*
X118546Y480925D01*
X119434Y482006D01*
X120094Y483240D01*
X120500Y484579D01*
X120588Y485471D01*
D02*
G37*
G36*
X113000D02*
X106412D01*
X106500Y484579D01*
X106906Y483240D01*
X107566Y482006D01*
X108454Y480925D01*
X109535Y480037D01*
X110769Y479378D01*
X112108Y478971D01*
X113000Y478884D01*
Y485471D01*
D02*
G37*
G36*
X177866Y493429D02*
X156500D01*
Y476000D01*
X177866D01*
Y493429D01*
D02*
G37*
G36*
X155500D02*
X134134D01*
Y476000D01*
X155500D01*
Y493429D01*
D02*
G37*
G36*
X217903Y472603D02*
Y471163D01*
X219343D01*
X219287Y471443D01*
X218845Y472105D01*
X218183Y472547D01*
X217903Y472603D01*
D02*
G37*
G36*
X216903D02*
X216623Y472547D01*
X215961Y472105D01*
X215519Y471443D01*
X215463Y471163D01*
X216903D01*
Y472603D01*
D02*
G37*
G36*
X219343Y470163D02*
X217903D01*
Y468723D01*
X218183Y468779D01*
X218845Y469221D01*
X219287Y469882D01*
X219343Y470163D01*
D02*
G37*
G36*
X216903D02*
X215463D01*
X215519Y469882D01*
X215961Y469221D01*
X216623Y468779D01*
X216903Y468723D01*
Y470163D01*
D02*
G37*
G36*
X240661Y492043D02*
X230362D01*
Y480957D01*
X232486D01*
Y472937D01*
X221374D01*
Y461841D01*
X209626D01*
Y472937D01*
X206038D01*
Y480957D01*
X208161D01*
Y492043D01*
X197862D01*
Y480957D01*
X199986D01*
Y472937D01*
X183973D01*
Y461526D01*
X182038D01*
X181255Y461423D01*
X180525Y461121D01*
X179898Y460640D01*
X178328Y459070D01*
X177866Y459261D01*
Y475000D01*
X156500D01*
Y457571D01*
X176732D01*
X177054Y457071D01*
X176974Y456462D01*
Y448672D01*
X177077Y447888D01*
X177380Y447159D01*
X177860Y446532D01*
X179032Y445360D01*
X179032Y445360D01*
X179659Y444879D01*
X180388Y444577D01*
X181172Y444474D01*
X193030D01*
X193221Y444012D01*
X191839Y442630D01*
X191776D01*
X190992Y442527D01*
X190263Y442225D01*
X189636Y441744D01*
X189155Y441117D01*
X188853Y440387D01*
X188750Y439604D01*
X188853Y438821D01*
X189155Y438091D01*
X189636Y437464D01*
X190263Y436983D01*
X190992Y436681D01*
X191776Y436578D01*
X193092D01*
X193875Y436681D01*
X194299Y436857D01*
X194583Y436433D01*
X185860Y427711D01*
X185380Y427084D01*
X185077Y426354D01*
X184974Y425571D01*
Y423500D01*
X185077Y422717D01*
X185380Y421987D01*
X185860Y421360D01*
X186487Y420880D01*
X187217Y420577D01*
X188000Y420474D01*
X188783Y420577D01*
X189513Y420880D01*
X190140Y421360D01*
X190621Y421987D01*
X190923Y422717D01*
X191026Y423500D01*
Y424318D01*
X192102Y425393D01*
X192246Y425345D01*
X192593Y425178D01*
X192879Y424487D01*
X193360Y423860D01*
X198360Y418860D01*
X198987Y418379D01*
X199717Y418077D01*
X200500Y417974D01*
X200500Y417974D01*
X209339D01*
Y413685D01*
X219638D01*
Y427825D01*
Y442185D01*
Y455789D01*
X220362D01*
Y442185D01*
Y427825D01*
Y413685D01*
X230661D01*
Y417974D01*
X236500D01*
X237283Y418077D01*
X238013Y418379D01*
X238640Y418860D01*
X239121Y419487D01*
X239423Y420217D01*
X239526Y421000D01*
X239474Y421397D01*
X239597Y421496D01*
X239949Y421618D01*
X243685Y417882D01*
Y411862D01*
X258315D01*
Y422161D01*
X247964D01*
X245026Y425100D01*
Y436500D01*
X244923Y437283D01*
X244620Y438013D01*
X244140Y438640D01*
X243513Y439120D01*
X242783Y439423D01*
X242000Y439526D01*
X241217Y439423D01*
X240487Y439120D01*
X239860Y438640D01*
X239380Y438013D01*
X239077Y437283D01*
X238974Y436500D01*
Y434958D01*
X238512Y434767D01*
X236000Y437279D01*
X235373Y437760D01*
X234643Y438063D01*
X233860Y438166D01*
X230661D01*
Y442185D01*
Y446474D01*
X235500D01*
X236283Y446577D01*
X237013Y446879D01*
X237640Y447360D01*
X238121Y447987D01*
X238423Y448717D01*
X238526Y449500D01*
X238423Y450283D01*
X238121Y451013D01*
X237640Y451640D01*
X237013Y452120D01*
X236283Y452423D01*
X235500Y452526D01*
X230661D01*
Y456815D01*
X229247D01*
X229056Y457277D01*
X231140Y459360D01*
X231621Y459987D01*
X231923Y460717D01*
X231968Y461063D01*
X246586D01*
X246957Y460563D01*
X246742Y459854D01*
X246658Y459000D01*
X256000D01*
Y465439D01*
X253547D01*
X252193Y465306D01*
X250892Y464911D01*
X249692Y464269D01*
X248641Y463407D01*
X247778Y462355D01*
X247528Y461887D01*
X247028Y462012D01*
Y472937D01*
X238538D01*
Y480957D01*
X240661D01*
Y492043D01*
D02*
G37*
G36*
X259453Y465439D02*
X257000D01*
Y459000D01*
X266342D01*
X266258Y459854D01*
X265863Y461155D01*
X265222Y462355D01*
X264359Y463407D01*
X263308Y464269D01*
X262108Y464911D01*
X260806Y465306D01*
X259453Y465439D01*
D02*
G37*
G36*
X155500Y475000D02*
X134134D01*
Y457571D01*
X155500D01*
Y475000D01*
D02*
G37*
G36*
X266342Y458000D02*
X257000D01*
Y451561D01*
X259453D01*
X260806Y451694D01*
X262108Y452089D01*
X263308Y452731D01*
X264359Y453593D01*
X265222Y454645D01*
X265863Y455845D01*
X266258Y457146D01*
X266342Y458000D01*
D02*
G37*
G36*
X256000D02*
X246658D01*
X246742Y457146D01*
X247136Y455845D01*
X247778Y454645D01*
X248641Y453593D01*
X249692Y452731D01*
X250892Y452089D01*
X252193Y451694D01*
X253547Y451561D01*
X256000D01*
Y458000D01*
D02*
G37*
G36*
X112453Y444939D02*
X110000D01*
Y438500D01*
X119342D01*
X119258Y439354D01*
X118863Y440655D01*
X118222Y441855D01*
X117359Y442907D01*
X116308Y443770D01*
X115108Y444411D01*
X113806Y444806D01*
X112453Y444939D01*
D02*
G37*
G36*
X109000D02*
X106547D01*
X105193Y444806D01*
X103892Y444411D01*
X102692Y443770D01*
X101641Y442907D01*
X100778Y441855D01*
X100136Y440655D01*
X99742Y439354D01*
X99658Y438500D01*
X109000D01*
Y444939D01*
D02*
G37*
G36*
X149969Y441280D02*
X142032D01*
Y435647D01*
X141965Y435146D01*
X141971Y435101D01*
Y434867D01*
X141509Y434675D01*
X139545Y436640D01*
X138918Y437120D01*
X138189Y437423D01*
X137406Y437526D01*
X127000D01*
X126217Y437423D01*
X125487Y437120D01*
X124860Y436640D01*
X116747Y428526D01*
X102291D01*
X101508Y428423D01*
X100778Y428121D01*
X100152Y427640D01*
X100152Y427640D01*
X97860Y425348D01*
X97379Y424722D01*
X97077Y423992D01*
X96974Y423209D01*
Y410185D01*
X97077Y409402D01*
X97379Y408672D01*
X97860Y408045D01*
X100545Y405360D01*
X101172Y404880D01*
X101902Y404577D01*
X102685Y404474D01*
X103685D01*
Y401339D01*
X107974D01*
Y392000D01*
X108077Y391217D01*
X108379Y390487D01*
X108860Y389860D01*
X111027Y387694D01*
X110885Y387129D01*
X110769Y387093D01*
X109535Y386434D01*
X108454Y385546D01*
X107566Y384465D01*
X106906Y383231D01*
X106500Y381892D01*
X106412Y381000D01*
X120588D01*
X120500Y381892D01*
X120094Y383231D01*
X119434Y384465D01*
X118546Y385546D01*
X118390Y385675D01*
X118558Y386146D01*
X190000D01*
X190783Y386249D01*
X191513Y386551D01*
X192140Y387032D01*
X192621Y387659D01*
X192923Y388388D01*
X193026Y389172D01*
Y400650D01*
X193673Y401146D01*
X194498Y402222D01*
X195017Y403475D01*
X195194Y404819D01*
Y407181D01*
X195017Y408525D01*
X194498Y409778D01*
X193673Y410854D01*
X192597Y411679D01*
X191344Y412198D01*
X190000Y412375D01*
X188656Y412198D01*
X187403Y411679D01*
X186327Y410854D01*
X185650Y409971D01*
X185150Y410140D01*
Y412331D01*
X174850D01*
Y399669D01*
X185150D01*
Y401860D01*
X185650Y402029D01*
X186327Y401146D01*
X186974Y400650D01*
Y392197D01*
X118816D01*
X118783Y392223D01*
X118053Y392525D01*
X117270Y392628D01*
X114651D01*
X114026Y393253D01*
Y401339D01*
X118315D01*
Y411638D01*
X103685D01*
Y411638D01*
X103185Y411579D01*
X103026Y411697D01*
Y421639D01*
X103185Y421749D01*
X103685Y421486D01*
Y412362D01*
X129043D01*
Y422661D01*
X127594D01*
X127403Y423123D01*
X129640Y425360D01*
X129640Y425360D01*
X130121Y425987D01*
X130339Y426514D01*
X130839Y426414D01*
Y426000D01*
X134988D01*
X139138D01*
Y427835D01*
X139600Y428026D01*
X140862Y426764D01*
Y419957D01*
X151161D01*
Y431043D01*
X150040D01*
Y435140D01*
X150040Y435140D01*
X149969Y435686D01*
Y441280D01*
D02*
G37*
G36*
X119342Y437500D02*
X110000D01*
Y431061D01*
X112453D01*
X113806Y431194D01*
X115108Y431589D01*
X116308Y432231D01*
X117359Y433093D01*
X118222Y434145D01*
X118863Y435345D01*
X119258Y436646D01*
X119342Y437500D01*
D02*
G37*
G36*
X109000D02*
X99658D01*
X99742Y436646D01*
X100136Y435345D01*
X100778Y434145D01*
X101641Y433093D01*
X102692Y432231D01*
X103892Y431589D01*
X105193Y431194D01*
X106547Y431061D01*
X109000D01*
Y437500D01*
D02*
G37*
G36*
X139138Y425000D02*
X135488D01*
Y420957D01*
X139138D01*
Y425000D01*
D02*
G37*
G36*
X134488D02*
X130839D01*
Y420957D01*
X134488D01*
Y425000D01*
D02*
G37*
G36*
X259453Y445944D02*
X253547D01*
X251997Y445791D01*
X250507Y445339D01*
X249134Y444605D01*
X247930Y443617D01*
X246942Y442413D01*
X246208Y441040D01*
X245756Y439550D01*
X245603Y438000D01*
X245756Y436450D01*
X246208Y434960D01*
X246942Y433587D01*
X247930Y432383D01*
X249134Y431395D01*
X250507Y430661D01*
X251997Y430209D01*
X253547Y430056D01*
X259453D01*
X261002Y430209D01*
X262493Y430661D01*
X262506Y430668D01*
X263474Y429699D01*
Y423500D01*
X263577Y422717D01*
X263879Y421987D01*
X264360Y421360D01*
X264987Y420880D01*
X265717Y420577D01*
X266500Y420474D01*
X267283Y420577D01*
X268013Y420880D01*
X268640Y421360D01*
X269121Y421987D01*
X269423Y422717D01*
X269526Y423500D01*
Y430953D01*
X269423Y431736D01*
X269121Y432466D01*
X268640Y433092D01*
X266785Y434947D01*
X266792Y434960D01*
X267244Y436450D01*
X267396Y438000D01*
X267244Y439550D01*
X266792Y441040D01*
X266058Y442413D01*
X265070Y443617D01*
X263866Y444605D01*
X262493Y445339D01*
X261002Y445791D01*
X259453Y445944D01*
D02*
G37*
G36*
X112453Y465944D02*
X106547D01*
X104998Y465791D01*
X103507Y465339D01*
X102134Y464605D01*
X100930Y463617D01*
X99942Y462413D01*
X99208Y461040D01*
X98756Y459550D01*
X98603Y458000D01*
X98756Y456450D01*
X99208Y454960D01*
X99942Y453587D01*
X100930Y452383D01*
X102134Y451395D01*
X103507Y450661D01*
X104998Y450209D01*
X106547Y450056D01*
X112453D01*
X114003Y450209D01*
X115493Y450661D01*
X116866Y451395D01*
X118070Y452383D01*
X119058Y453587D01*
X119260Y453966D01*
X124329D01*
X133647Y444647D01*
X133647Y444647D01*
X134483Y444006D01*
X135456Y443603D01*
X136500Y443466D01*
X161966D01*
Y435146D01*
Y414514D01*
X161486Y414035D01*
X151161D01*
Y415543D01*
X140862D01*
Y404457D01*
X151161D01*
Y405966D01*
X163157D01*
X163157Y405966D01*
X164201Y406103D01*
X165174Y406506D01*
X166010Y407147D01*
X168853Y409990D01*
X169494Y410826D01*
X169897Y411799D01*
X170035Y412843D01*
Y435146D01*
Y445157D01*
X169897Y446201D01*
X169494Y447174D01*
X168853Y448010D01*
X168853Y448010D01*
X166510Y450353D01*
X165674Y450994D01*
X164701Y451397D01*
X163657Y451535D01*
X163657Y451535D01*
X138171D01*
X128853Y460853D01*
X128017Y461494D01*
X127044Y461897D01*
X126000Y462035D01*
X126000Y462035D01*
X119260D01*
X119058Y462413D01*
X118070Y463617D01*
X116866Y464605D01*
X115493Y465339D01*
X114003Y465791D01*
X112453Y465944D01*
D02*
G37*
G36*
X139138Y414543D02*
X135488D01*
Y410500D01*
X139138D01*
Y414543D01*
D02*
G37*
G36*
X134488D02*
X130839D01*
Y410500D01*
X134488D01*
Y414543D01*
D02*
G37*
G36*
X230000Y412375D02*
X228656Y412198D01*
X227403Y411679D01*
X226327Y410854D01*
X225502Y409778D01*
X225250Y409170D01*
X224750D01*
X224498Y409778D01*
X223673Y410854D01*
X222597Y411679D01*
X221344Y412198D01*
X220000Y412375D01*
X218656Y412198D01*
X217403Y411679D01*
X216327Y410854D01*
X215502Y409778D01*
X215250Y409170D01*
X214750D01*
X214498Y409778D01*
X213673Y410854D01*
X212597Y411679D01*
X211344Y412198D01*
X210000Y412375D01*
X208656Y412198D01*
X207403Y411679D01*
X206327Y410854D01*
X205502Y409778D01*
X204983Y408525D01*
X204806Y407181D01*
Y404819D01*
X204983Y403475D01*
X205502Y402222D01*
X206327Y401146D01*
X207403Y400321D01*
X208656Y399802D01*
X210000Y399625D01*
X211344Y399802D01*
X212597Y400321D01*
X213673Y401146D01*
X214498Y402222D01*
X214750Y402830D01*
X215250D01*
X215502Y402222D01*
X216327Y401146D01*
X217403Y400321D01*
X218656Y399802D01*
X220000Y399625D01*
X221344Y399802D01*
X222597Y400321D01*
X223673Y401146D01*
X224498Y402222D01*
X224750Y402830D01*
X225250D01*
X225502Y402222D01*
X226327Y401146D01*
X227403Y400321D01*
X228656Y399802D01*
X230000Y399625D01*
X231344Y399802D01*
X232597Y400321D01*
X233673Y401146D01*
X234498Y402222D01*
X235017Y403475D01*
X235194Y404819D01*
Y407181D01*
X235017Y408525D01*
X234498Y409778D01*
X233673Y410854D01*
X232597Y411679D01*
X231344Y412198D01*
X230000Y412375D01*
D02*
G37*
G36*
X128043Y410638D02*
X124000D01*
Y406988D01*
X128043D01*
Y410638D01*
D02*
G37*
G36*
X123000D02*
X118957D01*
Y406988D01*
X123000D01*
Y410638D01*
D02*
G37*
G36*
X200500Y411301D02*
Y406500D01*
X204185D01*
Y407181D01*
X204043Y408264D01*
X203625Y409274D01*
X202959Y410141D01*
X202093Y410806D01*
X201083Y411224D01*
X200500Y411301D01*
D02*
G37*
G36*
X199500D02*
X198917Y411224D01*
X197907Y410806D01*
X197040Y410141D01*
X196375Y409274D01*
X195957Y408264D01*
X195815Y407181D01*
Y406500D01*
X199500D01*
Y411301D01*
D02*
G37*
G36*
X257315Y410138D02*
X251500D01*
Y406488D01*
X257315D01*
Y410138D01*
D02*
G37*
G36*
X250500D02*
X244685D01*
Y406488D01*
X250500D01*
Y410138D01*
D02*
G37*
G36*
X139138Y409500D02*
X135488D01*
Y405457D01*
X139138D01*
Y409500D01*
D02*
G37*
G36*
X134488D02*
X130839D01*
Y405457D01*
X134488D01*
Y409500D01*
D02*
G37*
G36*
X128043Y405988D02*
X124000D01*
Y402339D01*
X128043D01*
Y405988D01*
D02*
G37*
G36*
X123000D02*
X118957D01*
Y402339D01*
X123000D01*
Y405988D01*
D02*
G37*
G36*
X257315Y405488D02*
X251500D01*
Y401839D01*
X257315D01*
Y405488D01*
D02*
G37*
G36*
X250500D02*
X244685D01*
Y401839D01*
X250500D01*
Y405488D01*
D02*
G37*
G36*
X204185Y405500D02*
X200500D01*
Y400699D01*
X201083Y400776D01*
X202093Y401194D01*
X202959Y401859D01*
X203625Y402726D01*
X204043Y403736D01*
X204185Y404819D01*
Y405500D01*
D02*
G37*
G36*
X199500D02*
X195815D01*
Y404819D01*
X195957Y403736D01*
X196375Y402726D01*
X197040Y401859D01*
X197907Y401194D01*
X198917Y400776D01*
X199500Y400699D01*
Y405500D01*
D02*
G37*
G36*
X264000Y387587D02*
Y381000D01*
X270587D01*
X270500Y381892D01*
X270093Y383231D01*
X269434Y384465D01*
X268546Y385546D01*
X267465Y386434D01*
X266231Y387093D01*
X264892Y387500D01*
X264000Y387587D01*
D02*
G37*
G36*
X263000D02*
X262108Y387500D01*
X260769Y387093D01*
X259535Y386434D01*
X258454Y385546D01*
X257566Y384465D01*
X256907Y383231D01*
X256500Y381892D01*
X256413Y381000D01*
X263000D01*
Y387587D01*
D02*
G37*
%LPD*%
G36*
X189191Y455058D02*
X189077Y454783D01*
X188974Y454000D01*
X189077Y453217D01*
X189380Y452487D01*
X189860Y451860D01*
X190487Y451379D01*
X191217Y451077D01*
X191607Y451026D01*
X191574Y450526D01*
X183026D01*
Y455209D01*
X183291Y455474D01*
X188913D01*
X189191Y455058D01*
D02*
G37*
G36*
X209339Y442185D02*
Y438166D01*
X197569D01*
X197569Y438166D01*
X196785Y438063D01*
X196361Y437887D01*
X196078Y438311D01*
X204242Y446474D01*
X209339D01*
Y442185D01*
D02*
G37*
G36*
Y427825D02*
Y424026D01*
X201753D01*
X197640Y428140D01*
X197013Y428620D01*
X196322Y428907D01*
X196156Y429254D01*
X196107Y429398D01*
X198822Y432114D01*
X209339D01*
Y427825D01*
D02*
G37*
G36*
X235360Y429360D02*
X235987Y428879D01*
X236717Y428577D01*
X237108Y428526D01*
X237500Y428474D01*
X237892Y428526D01*
X238283Y428577D01*
X238474Y428656D01*
X238974Y428322D01*
Y423846D01*
X239026Y423450D01*
X238856Y423313D01*
X238554Y423205D01*
X238013Y423621D01*
X237283Y423923D01*
X236500Y424026D01*
X230661D01*
Y427825D01*
Y432114D01*
X232607D01*
X235360Y429360D01*
D02*
G37*
D26*
X117701Y389172D02*
X190000D01*
X117270Y389602D02*
X117701Y389172D01*
X113398Y389602D02*
X117270D01*
X111000Y392000D02*
X113398Y389602D01*
X102291Y425500D02*
X118000D01*
X100000Y423209D02*
X102291Y425500D01*
X100000Y410185D02*
Y423209D01*
Y410185D02*
X102685Y407500D01*
X118000Y425500D02*
X127000Y434500D01*
X137406D01*
X123500Y423500D02*
X127500Y427500D01*
X123500Y417512D02*
Y423500D01*
X146006Y425900D02*
X146012Y425894D01*
X137406Y434500D02*
X146006Y425900D01*
X102685Y407500D02*
X109988D01*
X111000Y406488D01*
X146012Y425500D02*
Y425894D01*
X111000Y417512D02*
X123500D01*
X190000Y389172D02*
Y406000D01*
X111000Y392000D02*
Y406488D01*
X266500Y423500D02*
Y430953D01*
X259453Y438000D02*
X266500Y430953D01*
X256500Y438000D02*
X259453D01*
X242000Y423846D02*
X248835Y417012D01*
X242000Y423846D02*
Y436500D01*
X248835Y417012D02*
X251000D01*
X192000Y454000D02*
X195500D01*
X180000Y456462D02*
X182038Y458500D01*
X180000Y448672D02*
Y456462D01*
X196799Y455299D02*
Y467000D01*
X195500Y454000D02*
X196799Y455299D01*
X206646Y458815D02*
X226315D01*
X195331Y447500D02*
X206646Y458815D01*
X181172Y447500D02*
X195331D01*
X182038Y458500D02*
X190500D01*
X180000Y448672D02*
X181172Y447500D01*
X226315Y458815D02*
X229000Y461500D01*
Y464063D01*
X231937Y467000D01*
X234201D01*
X235512Y468311D02*
Y486500D01*
X234201Y467000D02*
X235512Y468311D01*
X200075Y467000D02*
X203012Y469937D01*
X196799Y467000D02*
X200075D01*
X203012Y469937D02*
Y486500D01*
X197569Y435140D02*
X214488D01*
X188000Y425571D02*
X197569Y435140D01*
X188000Y423500D02*
Y425571D01*
X191776Y439604D02*
X193092D01*
X202988Y449500D01*
X195500Y426000D02*
X200500Y421000D01*
X202988Y449500D02*
X214488D01*
X200500Y421000D02*
X214488D01*
X225512D02*
X236500D01*
X233860Y435140D02*
X237500Y431500D01*
X225512Y435140D02*
X233860D01*
X225512Y449500D02*
X235500D01*
D27*
X230000Y406000D02*
D03*
X220000D02*
D03*
X210000D02*
D03*
X200000D02*
D03*
X190000D02*
D03*
D28*
X180000D02*
D03*
D29*
X217403Y470663D02*
D03*
X127500Y427500D02*
D03*
X266500Y423500D02*
D03*
X242000Y436500D02*
D03*
X192000Y454000D02*
D03*
X190500Y458500D02*
D03*
X191776Y439604D02*
D03*
X195500Y426000D02*
D03*
X188000Y423500D02*
D03*
X236500Y421000D02*
D03*
X237500Y431500D02*
D03*
X235500Y449500D02*
D03*
D30*
X113500Y485971D02*
D03*
Y380500D02*
D03*
X263500D02*
D03*
Y487200D02*
D03*
D31*
X156000Y475500D02*
D03*
D32*
X146000Y435146D02*
D03*
X166000D02*
D03*
D33*
X256500Y458500D02*
D03*
Y438000D02*
D03*
X109500Y458000D02*
D03*
Y438000D02*
D03*
D34*
X234201Y467000D02*
D03*
X196799D02*
D03*
D35*
X214488Y435140D02*
D03*
X225512D02*
D03*
X214488Y449500D02*
D03*
X225512D02*
D03*
X214488Y421000D02*
D03*
X225512D02*
D03*
D36*
X146012Y425500D02*
D03*
X134988D02*
D03*
X146012Y410000D02*
D03*
X134988D02*
D03*
X203012Y486500D02*
D03*
X191988D02*
D03*
X235512D02*
D03*
X224488D02*
D03*
D37*
X251000Y417012D02*
D03*
Y405988D02*
D03*
X111000Y406488D02*
D03*
Y417512D02*
D03*
D38*
X123500D02*
D03*
Y406488D02*
D03*
D39*
X146006Y425900D02*
Y435140D01*
X146012Y410000D02*
X163157D01*
X136500Y447500D02*
X163657D01*
X126000Y458000D02*
X136500Y447500D01*
X166000Y435146D02*
Y445157D01*
X163657Y447500D02*
X166000Y445157D01*
X109500Y458000D02*
X126000D01*
X163157Y410000D02*
X166000Y412843D01*
Y435146D01*
X146000D02*
X146006Y435140D01*
M02*
